<svg width="247" height="48" viewBox="0 0 247 48" fill="none" xmlns="http://www.w3.org/2000/svg">
<path d="M4.55638 37.024L20.7804 0.623998H29.1004L45.3764 37.024H36.5364L23.2244 4.888H26.5524L13.1884 37.024H4.55638ZM12.6684 29.224L14.9044 22.828H33.6244L35.9124 29.224H12.6684Z" fill="#FA3B50"/>
<path d="M50.2034 37.024V0.623998H67.1554C71.3848 0.623998 74.6781 1.43866 77.0354 3.068C79.3928 4.69733 80.5714 7.02 80.5714 10.036C80.5714 13.0173 79.4621 15.34 77.2434 17.004C75.0248 18.6333 72.0781 19.448 68.4034 19.448L69.3914 17.264C73.4821 17.264 76.6541 18.0787 78.9074 19.708C81.1608 21.3373 82.2874 23.6947 82.2874 26.78C82.2874 29.9693 81.0741 32.4827 78.6474 34.32C76.2554 36.1227 72.7541 37.024 68.1434 37.024H50.2034ZM58.5754 30.784H67.8314C69.7728 30.784 71.2461 30.4027 72.2514 29.64C73.2568 28.8773 73.7594 27.6987 73.7594 26.104C73.7594 24.5787 73.2568 23.452 72.2514 22.724C71.2461 21.9613 69.7728 21.58 67.8314 21.58H58.5754V30.784ZM58.5754 15.704H66.4274C68.2648 15.704 69.6515 15.34 70.5874 14.612C71.5234 13.8493 71.9914 12.74 71.9914 11.284C71.9914 9.828 71.5234 8.736 70.5874 8.008C69.6515 7.24533 68.2648 6.864 66.4274 6.864H58.5754V15.704Z" fill="#FA3B50"/>
<path d="M88.9495 37.024V0.623998H104.706C107.964 0.623998 110.772 1.16133 113.13 2.236C115.487 3.276 117.307 4.784 118.59 6.76C119.872 8.736 120.514 11.0933 120.514 13.832C120.514 16.536 119.872 18.876 118.59 20.852C117.307 22.828 115.487 24.3533 113.13 25.428C110.772 26.468 107.964 26.988 104.706 26.988H93.6295L97.3735 23.192V37.024H88.9495ZM97.3735 24.128L93.6295 20.124H104.238C106.838 20.124 108.779 19.5693 110.062 18.46C111.344 17.3507 111.986 15.808 111.986 13.832C111.986 11.8213 111.344 10.2613 110.062 9.152C108.779 8.04267 106.838 7.488 104.238 7.488H93.6295L97.3735 3.484V24.128Z" fill="#FA3B50"/>
<path d="M143.998 37.648C141.121 37.648 138.452 37.18 135.99 36.244C133.564 35.308 131.449 33.9907 129.646 32.292C127.878 30.5933 126.492 28.6 125.486 26.312C124.516 24.024 124.03 21.528 124.03 18.824C124.03 16.12 124.516 13.624 125.486 11.336C126.492 9.048 127.896 7.05467 129.698 5.356C131.501 3.65733 133.616 2.34 136.042 1.404C138.469 0.467999 141.104 0 143.946 0C146.824 0 149.458 0.467999 151.85 1.404C154.277 2.34 156.374 3.65733 158.142 5.356C159.945 7.05467 161.349 9.048 162.354 11.336C163.36 13.5893 163.862 16.0853 163.862 18.824C163.862 21.528 163.36 24.0413 162.354 26.364C161.349 28.652 159.945 30.6453 158.142 32.344C156.374 34.008 154.277 35.308 151.85 36.244C149.458 37.18 146.841 37.648 143.998 37.648ZM143.946 30.472C145.576 30.472 147.066 30.1947 148.418 29.64C149.805 29.0853 151.018 28.288 152.058 27.248C153.098 26.208 153.896 24.9773 154.45 23.556C155.04 22.1347 155.334 20.5573 155.334 18.824C155.334 17.0907 155.04 15.5133 154.45 14.092C153.896 12.6707 153.098 11.44 152.058 10.4C151.053 9.36 149.857 8.56266 148.47 8.008C147.084 7.45333 145.576 7.176 143.946 7.176C142.317 7.176 140.809 7.45333 139.422 8.008C138.07 8.56266 136.874 9.36 135.834 10.4C134.794 11.44 133.98 12.6707 133.39 14.092C132.836 15.5133 132.558 17.0907 132.558 18.824C132.558 20.5227 132.836 22.1 133.39 23.556C133.98 24.9773 134.777 26.208 135.782 27.248C136.822 28.288 138.036 29.0853 139.422 29.64C140.809 30.1947 142.317 30.472 143.946 30.472Z" fill="#FA3B50"/>
<path d="M170.352 37.024V0.623998H186.108C189.367 0.623998 192.175 1.16133 194.532 2.236C196.889 3.276 198.709 4.784 199.992 6.76C201.275 8.736 201.916 11.0933 201.916 13.832C201.916 16.536 201.275 18.876 199.992 20.852C198.709 22.828 196.889 24.3533 194.532 25.428C192.175 26.468 189.367 26.988 186.108 26.988H175.032L178.776 23.192V37.024H170.352ZM178.776 24.128L175.032 20.124H185.64C188.24 20.124 190.181 19.5693 191.464 18.46C192.747 17.3507 193.388 15.808 193.388 13.832C193.388 11.8213 192.747 10.2613 191.464 9.152C190.181 8.04267 188.24 7.488 185.64 7.488H175.032L178.776 3.484V24.128Z" fill="#FA3B50"/>
<path d="M201.537 37.024L217.761 0.623998H226.081L242.357 37.024H233.517L220.205 4.888H223.533L210.169 37.024H201.537ZM209.649 29.224L211.885 22.828H230.605L232.893 29.224H209.649Z" fill="#FA3B50"/>
<path d="M2.72122 41.024H244.062L246.722 47.024H0L2.72122 41.024Z" fill="#FA3B50"/>
</svg>
